<svg xmlns="http://www.w3.org/2000/svg" viewBox="0 0 1528.67 1072.26"><defs><style>.a,.b,.d,.e,.f,.g,.h,.i,.j,.k,.l,.m{stroke:#000;}.a,.e,.h,.i,.k{stroke-miterlimit:10;}.a,.b,.c,.d,.e,.g,.h,.j,.k,.l,.m{fill-rule:evenodd;}.b,.c{fill:#b6c0c1;}.b,.d,.f,.g,.i,.j,.l,.m{stroke-linecap:round;}.b,.d,.f,.g,.j,.l,.m{stroke-linejoin:round;}.b,.d,.e,.l,.m{stroke-width:20px;}.d,.e,.j{fill:#fff;}.f,.l{fill:#ff4902;}.f{stroke-width:10px;}.g,.h,.i{fill:none;}.g,.h,.k{stroke-width:16px;}.i{stroke-width:2px;}.j{stroke-width:12px;}.k,.m{fill:#ff8c02;}</style></defs><polyline class="a" points="684.8 947.26 876.98 947.26 779.92 1071.44 684.8 947.26"/><path d="M1015.29,1958.37H998.8a6.81,6.81,0,0,1-1.36-.15,7.33,7.33,0,0,1-1.44-.47,6.39,6.39,0,0,1-1.36-.82,5.11,5.11,0,0,1-1.15-1.21,5.76,5.76,0,0,1-.8-1.65,7,7,0,0,1-.3-2.12v-12.37a6.82,6.82,0,0,1,.15-1.37,7.29,7.29,0,0,1,.46-1.44,6.44,6.44,0,0,1,.83-1.36,5.82,5.82,0,0,1,1.22-1.15,6,6,0,0,1,1.64-.8,6.94,6.94,0,0,1,2.11-.3h16.49v4.57H998.8a1.86,1.86,0,0,0-1.37.48,1.91,1.91,0,0,0-.47,1.4V1952a1.83,1.83,0,0,0,.48,1.36,1.81,1.81,0,0,0,1.36.49h16.49Z" transform="translate(-803.44 -981.69)"/><path d="M1024.22,1943.46h16v-10.3h4.57v25.21h-4.57v-10.3h-16v10.3h-4.57v-25.21h4.57Z" transform="translate(-803.44 -981.69)"/><path d="M1054.79,1958.37h-4.57v-25.21h4.57Z" transform="translate(-803.44 -981.69)"/><path d="M1085.32,1956.42a2.31,2.31,0,0,1-.18.91,2.46,2.46,0,0,1-.49.73,2.35,2.35,0,0,1-1.63.66,2.37,2.37,0,0,1-.85-.16,1.92,1.92,0,0,1-.77-.51l-16.7-17.44v17.76h-4.57v-23.26a2.2,2.2,0,0,1,.4-1.27,2.47,2.47,0,0,1,1-.86,2.36,2.36,0,0,1,1.34-.13,2.16,2.16,0,0,1,1.17.64l16.7,17.42v-17.75h4.57Z" transform="translate(-803.44 -981.69)"/><path d="M1115.51,1956.06a2.32,2.32,0,0,1-.18.92,2.16,2.16,0,0,1-1.21,1.21,2.32,2.32,0,0,1-.92.18h-16.49a6.81,6.81,0,0,1-1.36-.15,7.33,7.33,0,0,1-1.44-.47,6.39,6.39,0,0,1-1.36-.82,5.11,5.11,0,0,1-1.15-1.21,5.76,5.76,0,0,1-.8-1.65,7,7,0,0,1-.3-2.12v-12.37a6.82,6.82,0,0,1,.15-1.37,7.29,7.29,0,0,1,.46-1.44,6.44,6.44,0,0,1,.83-1.36,5.82,5.82,0,0,1,1.22-1.15,6,6,0,0,1,1.64-.8,6.94,6.94,0,0,1,2.11-.3h18.58v4.57h-18.58a1.86,1.86,0,0,0-1.37.48,1.91,1.91,0,0,0-.47,1.4V1952a1.83,1.83,0,0,0,.48,1.36,1.81,1.81,0,0,0,1.36.49h14.23v-5.73h-12.17v-4.61h14.43a2.17,2.17,0,0,1,.92.19,2.31,2.31,0,0,1,.73.5,2.44,2.44,0,0,1,.48.73,2.16,2.16,0,0,1,.18.88Z" transform="translate(-803.44 -981.69)"/><path d="M1143.42,1958.37h-20.85a2.27,2.27,0,0,1-.91-.18,2.32,2.32,0,0,1-.73-.48,2.29,2.29,0,0,1-.49-.73,2.51,2.51,0,0,1-.17-.92v-22.9h4.57v20.64h18.58Z" transform="translate(-803.44 -981.69)"/><path d="M1151.38,1958.37h-4.57v-25.21h4.57Z" transform="translate(-803.44 -981.69)"/><path d="M1181,1951a8.29,8.29,0,0,1-.34,2.43,7.19,7.19,0,0,1-.91,1.91,5.92,5.92,0,0,1-1.32,1.41,7.74,7.74,0,0,1-3.21,1.49,7.42,7.42,0,0,1-1.57.18H1156v-4.57h17.63a2.68,2.68,0,0,0,2.05-.78,2.86,2.86,0,0,0,.73-2.07,3.57,3.57,0,0,0-.19-1.16,2.63,2.63,0,0,0-.56-.91,2.38,2.38,0,0,0-.88-.6,3,3,0,0,0-1.15-.21h-10.51a8.24,8.24,0,0,1-2.39-.4,7.13,7.13,0,0,1-2.38-1.27,7,7,0,0,1-1.83-2.31,8.64,8.64,0,0,1,0-6.95,7,7,0,0,1,4.21-3.58,7.92,7.92,0,0,1,2.39-.4h15.56v4.57h-15.56a2.62,2.62,0,0,0-2,.79,3,3,0,0,0-.73,2.09,2.89,2.89,0,0,0,.73,2.09,2.67,2.67,0,0,0,2,.76h10.55a8.13,8.13,0,0,1,1.56.2,8.64,8.64,0,0,1,1.64.57,8,8,0,0,1,1.56,1,6.55,6.55,0,0,1,1.31,1.41,7.09,7.09,0,0,1,.9,1.9A8,8,0,0,1,1181,1951Z" transform="translate(-803.44 -981.69)"/><path d="M1189.35,1943.46h16.05v-10.3H1210v25.21h-4.57v-10.3h-16.05v10.3h-4.57v-25.21h4.57Z" transform="translate(-803.44 -981.69)"/><path d="M1251.24,1951a8,8,0,0,1-.34,2.43,7.49,7.49,0,0,1-.9,1.91,6.35,6.35,0,0,1-1.32,1.41,8.88,8.88,0,0,1-1.57,1,8.29,8.29,0,0,1-1.64.54,7.49,7.49,0,0,1-1.57.18h-17.63v-4.57h17.63a2.65,2.65,0,0,0,2-.78,2.86,2.86,0,0,0,.73-2.07,3.32,3.32,0,0,0-.19-1.16,2.61,2.61,0,0,0-.55-.91,2.46,2.46,0,0,0-.88-.6,3.06,3.06,0,0,0-1.15-.21h-10.52a8.35,8.35,0,0,1-2.39-.4,7.22,7.22,0,0,1-2.38-1.27,7.1,7.1,0,0,1-1.83-2.31,8.64,8.64,0,0,1,0-6.95,7.17,7.17,0,0,1,1.83-2.3,7.07,7.07,0,0,1,2.38-1.28,8,8,0,0,1,2.39-.4h15.56v4.57h-15.56a2.63,2.63,0,0,0-2,.79,3,3,0,0,0-.73,2.09,2.94,2.94,0,0,0,.73,2.09,2.68,2.68,0,0,0,2,.76h10.55a8.33,8.33,0,0,1,1.57.2,8.88,8.88,0,0,1,1.64.57,8.23,8.23,0,0,1,1.55,1,6.31,6.31,0,0,1,1.31,1.41,6.82,6.82,0,0,1,.91,1.9A8.3,8.3,0,0,1,1251.24,1951Z" transform="translate(-803.44 -981.69)"/><path d="M1280.16,1943.71a9.22,9.22,0,0,1-.39,2.79,7.53,7.53,0,0,1-1,2.17,7.3,7.3,0,0,1-1.52,1.61,8.71,8.71,0,0,1-1.81,1.09,8.89,8.89,0,0,1-1.89.62,9.06,9.06,0,0,1-1.81.19h-10.33v-4.57h10.33a5.6,5.6,0,0,0,1.6-.36,3.92,3.92,0,0,0,1.22-.78,3.49,3.49,0,0,0,.79-1.19,4.11,4.11,0,0,0,.28-1.57v-2.08a6,6,0,0,0-.37-1.58,3.82,3.82,0,0,0-.76-1.23,3.53,3.53,0,0,0-1.17-.8,4.14,4.14,0,0,0-1.59-.29h-10.3a1.68,1.68,0,0,0-1.86,1.85v18.79H1255v-18.79a6.35,6.35,0,0,1,.64-3,6.13,6.13,0,0,1,1.6-2,6.42,6.42,0,0,1,2.08-1.1,7.15,7.15,0,0,1,2.08-.34h10.33a8.84,8.84,0,0,1,2.78.4,7.81,7.81,0,0,1,2.17,1,7.25,7.25,0,0,1,1.6,1.52,9.39,9.39,0,0,1,1.09,1.8,8.64,8.64,0,0,1,.63,1.9,9,9,0,0,1,.19,1.8Z" transform="translate(-803.44 -981.69)"/><path d="M1306.84,1958.37h-16.49a7.09,7.09,0,0,1-2.07-.34,6.05,6.05,0,0,1-2.08-1.1,6.2,6.2,0,0,1-1.6-2,6.4,6.4,0,0,1-.64-3v-16.49a2.43,2.43,0,0,1,.17-.89,2.33,2.33,0,0,1,.49-.74,2,2,0,0,1,.73-.49,2.27,2.27,0,0,1,.91-.18h20.58v4.57h-18.31V1952a1.66,1.66,0,0,0,1.86,1.85h16.45Zm-2-10.3h-14.44v-4.61h14.44Z" transform="translate(-803.44 -981.69)"/><path d="M1336,1958.37h-4.57v-6.19h-16.07v6.19h-4.57v-12.61a13.36,13.36,0,0,1,1-5.08,11.76,11.76,0,0,1,6.63-6.59,13.27,13.27,0,0,1,5-.93h10.31a2.25,2.25,0,0,1,.89.18,2.17,2.17,0,0,1,.74.49,2.33,2.33,0,0,1,.49.74,2.25,2.25,0,0,1,.18.89Zm-20.64-10.76h16.07v-9.88h-8l-.88.06a9.39,9.39,0,0,0-1.57.31,9.68,9.68,0,0,0-1.87.76,6.44,6.44,0,0,0-1.81,1.4,7.17,7.17,0,0,0-1.36,2.24,8.79,8.79,0,0,0-.54,3.26Z" transform="translate(-803.44 -981.69)"/><path d="M1345.9,1958.37h-4.57v-25.21h4.57Zm21.82,0h-6.49l-10.28-10.3h-3.22v-4.61H1351l10.28-10.3h6.49l-13,12.6Z" transform="translate(-803.44 -981.69)"/><path d="M1375.19,1958.37h-4.57v-25.21h4.57Z" transform="translate(-803.44 -981.69)"/><path d="M1405.72,1956.42a2.31,2.31,0,0,1-.18.91,2.49,2.49,0,0,1-.5.73,2.06,2.06,0,0,1-.73.48,2.25,2.25,0,0,1-.89.18,2.42,2.42,0,0,1-.86-.16,1.89,1.89,0,0,1-.76-.51l-16.7-17.44v17.76h-4.57v-23.26a2.13,2.13,0,0,1,.4-1.27,2.47,2.47,0,0,1,1-.86,2.33,2.33,0,0,1,1.33-.13,2.18,2.18,0,0,1,1.18.64l16.7,17.42v-17.75h4.57Z" transform="translate(-803.44 -981.69)"/><path d="M1435.9,1956.06a2.51,2.51,0,0,1-.17.92,2.29,2.29,0,0,1-.49.73,2.32,2.32,0,0,1-.73.48,2.27,2.27,0,0,1-.91.18h-16.49a6.73,6.73,0,0,1-1.36-.15,6.92,6.92,0,0,1-1.44-.47,6.46,6.46,0,0,1-1.37-.82,5.54,5.54,0,0,1-1.15-1.21,6,6,0,0,1-.8-1.65,7,7,0,0,1-.3-2.12v-12.37a6.82,6.82,0,0,1,.15-1.37,7.33,7.33,0,0,1,.47-1.44,6.44,6.44,0,0,1,.83-1.36,5.58,5.58,0,0,1,1.22-1.15,5.82,5.82,0,0,1,1.64-.8,6.89,6.89,0,0,1,2.11-.3h18.58v4.57h-18.58a1.84,1.84,0,0,0-1.37.48,1.87,1.87,0,0,0-.47,1.4V1952a1.83,1.83,0,0,0,.48,1.36,1.8,1.8,0,0,0,1.36.49h14.22v-5.73h-12.16v-4.61h14.43a2.12,2.12,0,0,1,.91.19,2.21,2.21,0,0,1,.73.5,2.29,2.29,0,0,1,.49.73,2.34,2.34,0,0,1,.17.88Z" transform="translate(-803.44 -981.69)"/><path d="M1777.62,1958.37H1773v-15l-8.11,14.25a2,2,0,0,1-.83.83,2.54,2.54,0,0,1-1.15.28,2.41,2.41,0,0,1-1.12-.28,2,2,0,0,1-.82-.83l-8.14-14.25v15h-4.57v-23.26a2.25,2.25,0,0,1,.47-1.4,2.21,2.21,0,0,1,1.22-.83,2.32,2.32,0,0,1,.74-.06,2.16,2.16,0,0,1,.71.16,2.19,2.19,0,0,1,.63.36,2.25,2.25,0,0,1,.47.58l10.41,18.08,10.4-18.08a2.17,2.17,0,0,1,1.12-1,2.34,2.34,0,0,1,1.48-.09,2.31,2.31,0,0,1,1.69,2.23Z" transform="translate(-803.44 -981.69)"/><path d="M1809.39,1948.17a11,11,0,0,1-.8,4.24,9.83,9.83,0,0,1-5.52,5.53,11.09,11.09,0,0,1-4.2.78h-6.18a11.06,11.06,0,0,1-4.2-.78,9.79,9.79,0,0,1-3.34-2.19,10.09,10.09,0,0,1-2.21-3.34,11,11,0,0,1-.8-4.24v-4.81a11,11,0,0,1,.8-4.23,9.89,9.89,0,0,1,2.21-3.34,10.09,10.09,0,0,1,3.34-2.19,10.87,10.87,0,0,1,4.2-.79h6.18a10.91,10.91,0,0,1,4.2.79,10.26,10.26,0,0,1,3.33,2.19,9.84,9.84,0,0,1,2.19,3.34,11,11,0,0,1,.8,4.23Zm-4.57-4.81a6.65,6.65,0,0,0-.44-2.46,5.34,5.34,0,0,0-1.21-1.88,5.48,5.48,0,0,0-1.88-1.21,6.51,6.51,0,0,0-2.42-.43h-6.18a6.58,6.58,0,0,0-2.44.43,5.62,5.62,0,0,0-1.89,1.21,5.36,5.36,0,0,0-1.22,1.88,6.65,6.65,0,0,0-.43,2.46v4.81a6.6,6.6,0,0,0,.43,2.45,5.27,5.27,0,0,0,1.22,1.88,5.5,5.5,0,0,0,1.89,1.22,6.79,6.79,0,0,0,2.44.43h6.15a6.74,6.74,0,0,0,2.43-.43,5.31,5.31,0,0,0,1.89-1.22,5.14,5.14,0,0,0,1.22-1.88,6.6,6.6,0,0,0,.44-2.45Z" transform="translate(-803.44 -981.69)"/><path d="M1836.33,1937.73h-10.07v20.64h-4.57v-20.64H1811.6v-4.57h24.73Z" transform="translate(-803.44 -981.69)"/><path d="M1865.79,1948.17a11,11,0,0,1-.79,4.24,10,10,0,0,1-2.19,3.34,9.89,9.89,0,0,1-3.34,2.19,11,11,0,0,1-4.19.78h-6.19a11.13,11.13,0,0,1-4.2-.78,9.89,9.89,0,0,1-3.34-2.19,10.22,10.22,0,0,1-2.2-3.34,10.86,10.86,0,0,1-.8-4.24v-4.81a10.84,10.84,0,0,1,.8-4.23,10,10,0,0,1,2.2-3.34,10.2,10.2,0,0,1,3.34-2.19,10.94,10.94,0,0,1,4.2-.79h6.19a10.86,10.86,0,0,1,4.19.79,10.2,10.2,0,0,1,3.34,2.19,9.84,9.84,0,0,1,2.19,3.34,11,11,0,0,1,.79,4.23Zm-4.57-4.81a6.65,6.65,0,0,0-.43-2.46,5.34,5.34,0,0,0-1.21-1.88,5.48,5.48,0,0,0-1.88-1.21,6.51,6.51,0,0,0-2.42-.43h-6.19a6.53,6.53,0,0,0-2.43.43,5.62,5.62,0,0,0-1.89,1.21,5.36,5.36,0,0,0-1.22,1.88,6.65,6.65,0,0,0-.43,2.46v4.81a6.6,6.6,0,0,0,.43,2.45,5.27,5.27,0,0,0,1.22,1.88,5.5,5.5,0,0,0,1.89,1.22,6.74,6.74,0,0,0,2.43.43h6.16a6.74,6.74,0,0,0,2.43-.43,5.5,5.5,0,0,0,1.89-1.22,5.14,5.14,0,0,0,1.22-1.88,6.6,6.6,0,0,0,.43-2.45Z" transform="translate(-803.44 -981.69)"/><path d="M1895.5,1941.63a9.24,9.24,0,0,1-.39,2.8,7.66,7.66,0,0,1-1,2.17,7.53,7.53,0,0,1-1.52,1.61,10,10,0,0,1-1.8,1.1,9.16,9.16,0,0,1-1.9.62,9,9,0,0,1-1.8.19l9.54,8.25h-7.07l-9.52-8.25h-3.29v-4.57h10.34a4.94,4.94,0,0,0,1.57-.36,3.91,3.91,0,0,0,1.23-.78,3.29,3.29,0,0,0,.8-1.19,4.14,4.14,0,0,0,.28-1.59v-2.88a1.33,1.33,0,0,0-.1-.59.73.73,0,0,0-.24-.3.76.76,0,0,0-.32-.11l-.31,0h-15.08v20.64h-4.57v-22.91a2.25,2.25,0,0,1,.18-.89,2.3,2.3,0,0,1,.48-.74,2.13,2.13,0,0,1,.73-.49,2.31,2.31,0,0,1,.91-.18H1890a5.54,5.54,0,0,1,2.59.55,5.3,5.3,0,0,1,2.66,3.19,6.48,6.48,0,0,1,.29,1.81Z" transform="translate(-803.44 -981.69)"/><path d="M1922.66,1958.37h-16.49a6.73,6.73,0,0,1-1.36-.15,6.92,6.92,0,0,1-1.44-.47,6.46,6.46,0,0,1-1.37-.82,5.54,5.54,0,0,1-1.15-1.21,6,6,0,0,1-.8-1.65,7,7,0,0,1-.3-2.12v-12.37a6.82,6.82,0,0,1,.15-1.37,7.33,7.33,0,0,1,.47-1.44,6.44,6.44,0,0,1,.83-1.36,5.58,5.58,0,0,1,1.22-1.15,5.82,5.82,0,0,1,1.64-.8,6.89,6.89,0,0,1,2.11-.3h16.49v4.57h-16.49a1.84,1.84,0,0,0-1.37.48,1.87,1.87,0,0,0-.47,1.4V1952a1.83,1.83,0,0,0,.48,1.36,1.8,1.8,0,0,0,1.36.49h16.49Z" transform="translate(-803.44 -981.69)"/><path d="M1951,1941.6a9.21,9.21,0,0,1-.4,2.79,7.81,7.81,0,0,1-1,2.17,6.87,6.87,0,0,1-1.52,1.61,9.45,9.45,0,0,1-1.8,1.1,7.89,7.89,0,0,1-1.89.62,9.09,9.09,0,0,1-1.8.2h-1.85v8.28h-4.6v-8.28h-1.83a9.09,9.09,0,0,1-1.8-.2,8.11,8.11,0,0,1-1.9-.62,8.87,8.87,0,0,1-1.8-1.1,7.08,7.08,0,0,1-1.52-1.61,8,8,0,0,1-1.06-2.18,9.2,9.2,0,0,1-.39-2.78v-8.44h4.57v8.44a4.32,4.32,0,0,0,.28,1.61,3.62,3.62,0,0,0,.79,1.22,3.36,3.36,0,0,0,1.24.78,4.68,4.68,0,0,0,1.63.27h8.24c.43-.07.88-.16,1.34-.27a3.51,3.51,0,0,0,1.24-.57,3.11,3.11,0,0,0,.94-1.13,4.31,4.31,0,0,0,.36-1.91v-8.44H1951Z" transform="translate(-803.44 -981.69)"/><path d="M1977.68,1958.37h-16.49a6.73,6.73,0,0,1-1.36-.15,6.92,6.92,0,0,1-1.44-.47,6.46,6.46,0,0,1-1.37-.82,5.54,5.54,0,0,1-1.15-1.21,6,6,0,0,1-.8-1.65,7,7,0,0,1-.3-2.12v-12.37a6.82,6.82,0,0,1,.15-1.37,7.33,7.33,0,0,1,.47-1.44,6.44,6.44,0,0,1,.83-1.36,5.58,5.58,0,0,1,1.22-1.15,5.82,5.82,0,0,1,1.64-.8,6.89,6.89,0,0,1,2.11-.3h16.49v4.57h-16.49a1.84,1.84,0,0,0-1.37.48,1.87,1.87,0,0,0-.48,1.4V1952a1.84,1.84,0,0,0,.49,1.36,1.8,1.8,0,0,0,1.36.49h16.49Z" transform="translate(-803.44 -981.69)"/><path d="M2005.15,1958.37h-20.84a2.32,2.32,0,0,1-.92-.18,2.16,2.16,0,0,1-1.21-1.21,2.32,2.32,0,0,1-.18-.92v-22.9h4.57v20.64h18.58Z" transform="translate(-803.44 -981.69)"/><path d="M2031.19,1958.37H2014.7a7.15,7.15,0,0,1-2.08-.34,6.05,6.05,0,0,1-2.08-1.1,6.2,6.2,0,0,1-1.6-2,6.4,6.4,0,0,1-.64-3v-16.49a2.25,2.25,0,0,1,.18-.89,2.15,2.15,0,0,1,.48-.74,2,2,0,0,1,.73-.49,2.27,2.27,0,0,1,.91-.18h20.59v4.57h-18.32V1952a1.66,1.66,0,0,0,1.86,1.85h16.46Zm-2.06-10.3H2014.7v-4.61h14.43Z" transform="translate(-803.44 -981.69)"/><path d="M2069.88,1958.37h-16.49a6.73,6.73,0,0,1-1.36-.15,7.21,7.21,0,0,1-1.45-.47,6.65,6.65,0,0,1-1.36-.82,5.31,5.31,0,0,1-1.15-1.21,6,6,0,0,1-.8-1.65,7,7,0,0,1-.3-2.12v-12.37a6.82,6.82,0,0,1,.15-1.37,7.33,7.33,0,0,1,.47-1.44,6.39,6.39,0,0,1,.82-1.36,5.82,5.82,0,0,1,1.22-1.15,6,6,0,0,1,1.65-.8,6.85,6.85,0,0,1,2.11-.3h16.49v4.57h-16.49a1.83,1.83,0,0,0-1.37.48,1.87,1.87,0,0,0-.48,1.4V1952a1.7,1.7,0,0,0,1.85,1.85h16.49Z" transform="translate(-803.44 -981.69)"/><path d="M2097.35,1958.37H2076.5a2.27,2.27,0,0,1-.91-.18,2.32,2.32,0,0,1-.73-.48,2.11,2.11,0,0,1-.48-.73,2.32,2.32,0,0,1-.18-.92v-22.9h4.57v20.64h18.58Z" transform="translate(-803.44 -981.69)"/><path d="M2124.07,1956.06a2.32,2.32,0,0,1-.18.92,2.13,2.13,0,0,1-.49.73,2.48,2.48,0,0,1-.74.48,2.25,2.25,0,0,1-.89.18h-10.3a14.34,14.34,0,0,1-3-.32,13.65,13.65,0,0,1-2.89-1,12.46,12.46,0,0,1-2.63-1.68,11.13,11.13,0,0,1-2.15-2.42,11.57,11.57,0,0,1-1.45-3.2,14.33,14.33,0,0,1-.53-4v-12.6h4.57v12.6a8.74,8.74,0,0,0,.54,3.27,7.36,7.36,0,0,0,1.36,2.24,6.79,6.79,0,0,0,1.81,1.4,10.36,10.36,0,0,0,1.87.76,10.77,10.77,0,0,0,1.57.31l.89.06h8v-20.64h4.57Z" transform="translate(-803.44 -981.69)"/><path d="M2154.53,1952.83a6.08,6.08,0,0,1-.29,1.81,5.16,5.16,0,0,1-.95,1.79,5.36,5.36,0,0,1-1.71,1.38,5.5,5.5,0,0,1-2.58.56h-17.35a2.32,2.32,0,0,1-.92-.18,2.16,2.16,0,0,1-1.21-1.21,2.32,2.32,0,0,1-.18-.92v-20.6a2.25,2.25,0,0,1,.18-.89,2.48,2.48,0,0,1,.48-.74,2.13,2.13,0,0,1,.73-.49,2.32,2.32,0,0,1,.92-.18h15.29a6.16,6.16,0,0,1,1.81.3,5.61,5.61,0,0,1,1.8,1,5.25,5.25,0,0,1,1.39,1.71,5.5,5.5,0,0,1,.55,2.58v.87a9.48,9.48,0,0,1-.4,2.61,8.55,8.55,0,0,1-1.3,2.64,8.65,8.65,0,0,1,1.45,1.14,7.64,7.64,0,0,1,1.18,1.55,8.29,8.29,0,0,1,.81,2,9.32,9.32,0,0,1,.3,2.44ZM2150,1952a4.32,4.32,0,0,0-.28-1.61,3.62,3.62,0,0,0-.79-1.22,3.4,3.4,0,0,0-1.23-.78,4.59,4.59,0,0,0-1.62-.27h-10.3v-4.61H2144a4.57,4.57,0,0,0,1.61-.27,3.4,3.4,0,0,0,1.23-.78,3.57,3.57,0,0,0,.79-1.23,4.47,4.47,0,0,0,.27-1.6v-.87a.86.86,0,0,0-.95-1h-13v16.07H2149l.29,0a.68.68,0,0,0,.32-.11.67.67,0,0,0,.25-.29,1.39,1.39,0,0,0,.1-.59Z" transform="translate(-803.44 -981.69)"/><path class="b" d="M1577.31,991.69c-171.88-.17-143.53,209.92-141,255s21.91,434.27,22,446,29.36,41.72,43,40,18.64-45.22,29-46,34.17,33,48,31,18-36.48,32-39,14,32.85,32,32,17.38-52.19,30-53,45,41.74,54,39c1.85-.56,21.54-13.66,21-41-2.17-110.2-13-372.45-14-419C1732.13,1178.07,1732.65,991.84,1577.31,991.69Z" transform="translate(-803.44 -981.69)"/><path class="c" d="M1697.36,1257.38s43.83,7.07,63.63-7.07c11.31-11.31,1.41-21.2-9.9-21.2s-22.62,2.82-41,1.41-12.73,26.86-12.73,26.86" transform="translate(-803.44 -981.69)"/><path class="c" d="M1443.59,1105.44s-9.43-23.07,4.2-27.26,15.73,7.34,15.73,7.34,4.42,13-1.36,17.91S1443.59,1105.44,1443.59,1105.44Z" transform="translate(-803.44 -981.69)"/><path class="c" d="M1420.28,1256.93s-15.59-23.07,6.92-27.26,26,7.34,26,7.34,7.31,13-2.23,17.91C1441.15,1259.94,1420.28,1256.93,1420.28,1256.93Z" transform="translate(-803.44 -981.69)"/><path class="d" d="M1670.22,1130.32c13.68-22,46.18-40.4,77-19s52.08,69.58,32,95-78.67,31.18-96,21S1641.37,1176.82,1670.22,1130.32Z" transform="translate(-803.44 -981.69)"/><path class="e" d="M1451.37,1108.08c-13.19-2.43-57.8,30.81-58,51s16.65,73.34,31,73,41.37-41.19,47-61S1464.56,1110.51,1451.37,1108.08Z" transform="translate(-803.44 -981.69)"/><circle class="f" cx="612.27" cy="179.84" r="3.87"/><circle class="f" cx="940.01" cy="168.38" r="3.87"/><path class="g" d="M1675.1,1076.12c-15.18,0-25,5.92-39.08,28.3-14.82,23.58-14.82,55.24-14.82,55.24" transform="translate(-803.44 -981.69)"/><path class="g" d="M1623.7,1209.71s8.48,38.17,43.82,45.24" transform="translate(-803.44 -981.69)"/><path class="g" d="M1699,1262.89s42.08.54,61.88-13.6c11.31-11.31,11.7-28.11.39-28.11" transform="translate(-803.44 -981.69)"/><path class="h" d="M1432.39,1107.43s-6.22-23.55,9.18-32c12.1-6.61,21.15-2,31.46,4.19,20.24,12.21,29.36,44,29.36,67.11" transform="translate(-803.44 -981.69)"/><path class="h" d="M1413.68,1225.46s-5.51,27,4.79,32.58c12.46,6.71,24.92,5.75,43.13-5.75,14.15-8.94,37.37-27.79,40.24-47.91" transform="translate(-803.44 -981.69)"/><path class="i" d="M1557.47,1524.21c.87,4.48,9.43,22.61,16,21.74" transform="translate(-803.44 -981.69)"/><path class="i" d="M1573.26,1507.23c2.27,4,16.22,18.37,22.11,15.45" transform="translate(-803.44 -981.69)"/><path class="i" d="M1595,1468.5c2.51,3.82,17.3,17.35,23,14.07" transform="translate(-803.44 -981.69)"/><path class="i" d="M1531.29,1455c.87,4.48,9.43,22.61,16,21.74" transform="translate(-803.44 -981.69)"/><path class="i" d="M1555.33,1470.24c2.41,3.88,16.88,17.76,22.65,14.62" transform="translate(-803.44 -981.69)"/><path class="i" d="M1619.91,1498.14c.87,4.48,9.43,22.61,15.95,21.74" transform="translate(-803.44 -981.69)"/><path class="i" d="M1660.5,1471.08c.87,4.48,9.43,22.61,16,21.74" transform="translate(-803.44 -981.69)"/><path class="i" d="M1699.16,1428.55c.87,4.49,9.42,22.62,15.94,21.75" transform="translate(-803.44 -981.69)"/><path class="i" d="M1614,1461.89c2.6,3.76,17.74,16.9,23.35,13.48" transform="translate(-803.44 -981.69)"/><path class="i" d="M1479.42,1480.2s-6.5,11.7-15.6,16.9" transform="translate(-803.44 -981.69)"/><path class="i" d="M1519.75,1480.53s.78,13.37-4.12,22.63" transform="translate(-803.44 -981.69)"/><path class="i" d="M1476.35,1442.73s-6.5,11.7-15.6,16.9" transform="translate(-803.44 -981.69)"/><path class="i" d="M1482.34,1459.29s-6.5,11.7-15.6,16.9" transform="translate(-803.44 -981.69)"/><polygon class="j" points="764.34 921.63 1439.11 921.63 1355.55 782.5 1522.67 438.08 1033.5 438.08 764.34 589.95 495.17 438.08 6 438.08 173.13 782.5 89.56 921.63 764.34 921.63"/><path class="k" d="M1491.11,1420.06s-99.73,17.26-152.22,34.52c100.28-54.65,143-80.55,143-80.55Z" transform="translate(-803.44 -981.69)"/><path class="c" d="M1482.9,1439.49s-13.25-42.64,5.89-50.39,22.08,13.56,22.08,13.56,6.21,24.09-1.9,33.12C1500.65,1445.06,1482.9,1439.49,1482.9,1439.49Z" transform="translate(-803.44 -981.69)"/><path class="l" d="M1387.06,1355.76s-39,72.65-50,97c46.4-29.47,146-59,146-59S1439,1358.52,1387.06,1355.76Z" transform="translate(-803.44 -981.69)"/><path class="m" d="M1478.84,1295.23s-179.86,5.61-197,13c39.92,7.85,151.29,44.32,200,86C1489.36,1342.46,1478.84,1295.23,1478.84,1295.23Z" transform="translate(-803.44 -981.69)"/><path d="M1062.27,1549.61h-36.64a16.45,16.45,0,0,1-4.61-.74,13.51,13.51,0,0,1-8.18-6.86,14.19,14.19,0,0,1-1.43-6.66v-36.64a5.12,5.12,0,0,1,.39-2,5,5,0,0,1,1.08-1.64,4.7,4.7,0,0,1,1.62-1.1,5.21,5.21,0,0,1,2-.39h45.74v10.16h-40.7v31.6a4.15,4.15,0,0,0,1,3.05,4.21,4.21,0,0,0,3.09,1h36.56Zm-4.57-22.89h-32.07v-10.24h32.07Z" transform="translate(-803.44 -981.69)"/><path d="M1125.71,1533.12a17.77,17.77,0,0,1-.76,5.41,16.31,16.31,0,0,1-2,4.24,13.7,13.7,0,0,1-2.93,3.13,17.63,17.63,0,0,1-7.13,3.32,17.12,17.12,0,0,1-3.5.39H1070.2v-10.16h39.18a5.94,5.94,0,0,0,4.55-1.72,6.43,6.43,0,0,0,1.62-4.61,7.43,7.43,0,0,0-.43-2.58,5.82,5.82,0,0,0-1.23-2,5.35,5.35,0,0,0-2-1.32,6.6,6.6,0,0,0-2.56-.47H1086a18.29,18.29,0,0,1-5.31-.88,16,16,0,0,1-5.29-2.83,15.52,15.52,0,0,1-4.07-5.12,19.23,19.23,0,0,1,0-15.45,15.6,15.6,0,0,1,9.36-8,18,18,0,0,1,5.31-.88h34.57v10.16H1086a5.8,5.8,0,0,0-4.51,1.76,6.58,6.58,0,0,0-1.62,4.64,6.42,6.42,0,0,0,1.62,4.63,5.9,5.9,0,0,0,4.51,1.7h23.44a18.67,18.67,0,0,1,3.48.45,18,18,0,0,1,3.65,1.27,17.48,17.48,0,0,1,3.45,2.17,14.62,14.62,0,0,1,2.92,3.14,15.85,15.85,0,0,1,2,4.22A18.29,18.29,0,0,1,1125.71,1533.12Z" transform="translate(-803.44 -981.69)"/><path d="M1184.19,1503.75H1161.8v45.86h-10.15v-45.86h-22.43v-10.16h55Z" transform="translate(-803.44 -981.69)"/><path d="M1920.94,1549.61H1869.5v-18.79a15.45,15.45,0,0,1,.33-3.07,15.84,15.84,0,0,1,1-3.22,14.9,14.9,0,0,1,1.82-3,12.63,12.63,0,0,1,2.69-2.56,13.52,13.52,0,0,1,3.66-1.77,15.07,15.07,0,0,1,4.68-.67h22.89a4.08,4.08,0,0,0,3.07-1,4.22,4.22,0,0,0,1-3v-4.49a4.35,4.35,0,0,0-1-3.13,4,4,0,0,0-3-1h-32.61v-10.16h32.61a15,15,0,0,1,4.65.67A13.32,13.32,0,0,1,1915,1496a12.78,12.78,0,0,1,2.72,2.56,15.2,15.2,0,0,1,1.85,3,14.3,14.3,0,0,1,1.06,3.2,15.23,15.23,0,0,1,.33,3v4.57a14.19,14.19,0,0,1-1.43,6.66,13.54,13.54,0,0,1-3.57,4.41,14,14,0,0,1-4.63,2.47,16.08,16.08,0,0,1-4.63.76h-23a4.64,4.64,0,0,0-2,.35,2.84,2.84,0,0,0-1.15.94,4.2,4.2,0,0,0-.61,1.32c-.13.5-.23,1-.31,1.49v8.63h41.29Z" transform="translate(-803.44 -981.69)"/><path d="M1995.2,1526.17a23.31,23.31,0,0,1-.88,6.5,23,23,0,0,1-2.48,5.69,22.66,22.66,0,0,1-3.79,4.68,23.93,23.93,0,0,1-4.79,3.54,23.36,23.36,0,0,1-11.5,3h-18.32a23.36,23.36,0,0,1-11.54-3,24.21,24.21,0,0,1-4.79-3.54,22.25,22.25,0,0,1-3.77-4.68,23.4,23.4,0,0,1-3.34-12.19V1517a22.72,22.72,0,0,1,1.94-9.45,23.45,23.45,0,0,1,5.17-7.41,23.78,23.78,0,0,1,7.48-4.84,23.11,23.11,0,0,1,8.85-1.74h18.32a23.36,23.36,0,0,1,11.5,3,24.27,24.27,0,0,1,4.79,3.53,23.06,23.06,0,0,1,7.15,16.88ZM1985,1517a13.24,13.24,0,0,0-4-9.69,12.54,12.54,0,0,0-4.2-2.69,12.85,12.85,0,0,0-5-.9h-18.32a13.12,13.12,0,0,0-4.94.88,12.77,12.77,0,0,0-7.23,6.87,13.42,13.42,0,0,0-1.11,5.53v9.14a13.42,13.42,0,0,0,1.09,5.51,13.06,13.06,0,0,0,12.19,7.77h18.32a14.38,14.38,0,0,0,5.45-1,12.31,12.31,0,0,0,4.16-2.76,12.14,12.14,0,0,0,2.66-4.2,14.81,14.81,0,0,0,.93-5.33Zm-4.41-7.42a4.93,4.93,0,0,1,0,5.6,5.14,5.14,0,0,1-1.47,1.43L1951.68,1535a4,4,0,0,1-1.36.7,5.46,5.46,0,0,1-1.45.2,5.11,5.11,0,0,1-2.38-.59,4.72,4.72,0,0,1-1.84-1.68,5,5,0,0,1-.78-1.85,5.18,5.18,0,0,1,0-2,5,5,0,0,1,.72-1.79,4.94,4.94,0,0,1,1.45-1.43l27.5-18.32a5,5,0,0,1,3.81-.78,5.27,5.27,0,0,1,1.79.74A5.18,5.18,0,0,1,1980.55,1509.61Z" transform="translate(-803.44 -981.69)"/><path d="M2021.06,1549.61h-10.2v-45.86h-9.18v-10.16h19.38Z" transform="translate(-803.44 -981.69)"/><path d="M2082.93,1549.61H2072.7v-22.89h-36.1a5.11,5.11,0,0,1-2-.41,5.4,5.4,0,0,1-1.62-1.1,4.92,4.92,0,0,1-1.07-1.62,5.12,5.12,0,0,1-.39-2v-28h10.15v22.89h31.06v-22.89h10.23Z" transform="translate(-803.44 -981.69)"/><path d="M1236.32,1796.41a16.26,16.26,0,0,1-1.22,6.35,15,15,0,0,1-3.41,5.06,16.25,16.25,0,0,1-11.36,4.58H1148.8a98.44,98.44,0,0,1-20.51-2.2,91,91,0,0,1-20.08-6.77,86.15,86.15,0,0,1-18.25-11.66,76.07,76.07,0,0,1-15-16.78,81.87,81.87,0,0,1-10.07-22.22,99.19,99.19,0,0,1-3.66-27.89v-87.53H1093v87.53q0,13.42,3.73,22.7a50,50,0,0,0,9.46,15.5,45.57,45.57,0,0,0,12.57,9.77,68.09,68.09,0,0,0,13,5.25,62,62,0,0,0,10.87,2.13q4.69.43,6.16.43h55.79V1637.35h31.73Z" transform="translate(-803.44 -981.69)"/><path d="M1305.17,1812.4h-31.74V1637.35h31.74Zm151.49,0h-45l-71.41-71.53h-22.34v-32h22.34l71.41-71.53h45l-90,87.53Z" transform="translate(-803.44 -981.69)"/><path d="M1629,1812.4h-114.5a47.46,47.46,0,0,1-9.46-1,48.83,48.83,0,0,1-10-3.23,46.65,46.65,0,0,1-9.46-5.68,38.66,38.66,0,0,1-8-8.42,41.67,41.67,0,0,1-5.56-11.48,48.54,48.54,0,0,1-2.07-14.71v-85.93a47.33,47.33,0,0,1,1-9.46,48.07,48.07,0,0,1,3.24-10A44.53,44.53,0,0,1,1480,1653a39.71,39.71,0,0,1,8.48-8,41.9,41.9,0,0,1,11.41-5.55,47.73,47.73,0,0,1,14.65-2.08H1629v31.74h-114.5q-6.23,0-9.52,3.29t-3.29,9.77v85.69q0,6.11,3.35,9.46t9.46,3.36H1629Z" transform="translate(-803.44 -981.69)"/><path d="M1862.79,1812.4h-32V1708.15l-56.28,99a13.78,13.78,0,0,1-5.8,5.74,17,17,0,0,1-8,1.95,16,16,0,0,1-7.75-1.95,14,14,0,0,1-5.68-5.74l-56.52-99V1812.4h-31.74V1650.9a15.75,15.75,0,0,1,3.24-9.77,15.58,15.58,0,0,1,8.48-5.73,16.93,16.93,0,0,1,10.07.67,15.1,15.1,0,0,1,4.34,2.56,14.81,14.81,0,0,1,3.29,4l72.27,125.61L1833,1642.6a15.56,15.56,0,0,1,7.76-6.59,16.48,16.48,0,0,1,10.31-.61,15.87,15.87,0,0,1,8.42,5.73,15.56,15.56,0,0,1,3.3,9.77Z" transform="translate(-803.44 -981.69)"/><path d="M2072.38,1796.41a16.26,16.26,0,0,1-1.22,6.35,15.26,15.26,0,0,1-8.42,8.42,16.4,16.4,0,0,1-6.35,1.22h-114.5a47.46,47.46,0,0,1-9.46-1,48.83,48.83,0,0,1-10-3.23,46.38,46.38,0,0,1-9.46-5.68,38.7,38.7,0,0,1-8-8.42,41.93,41.93,0,0,1-5.55-11.48,48.53,48.53,0,0,1-2.08-14.71v-85.93a47.38,47.38,0,0,1,1-9.46,48.07,48.07,0,0,1,3.24-10,44.48,44.48,0,0,1,5.73-9.46,39.76,39.76,0,0,1,8.49-8,41.76,41.76,0,0,1,11.41-5.55,47.68,47.68,0,0,1,14.65-2.08h129v31.74h-129q-6.23,0-9.52,3.29t-3.3,9.77v85.69q0,6.11,3.36,9.46t9.46,3.36h98.76v-39.79h-84.48v-32h100.22a15.57,15.57,0,0,1,6.35,1.29,15.93,15.93,0,0,1,5.07,3.47,16.52,16.52,0,0,1,3.35,5.07,15.48,15.48,0,0,1,1.22,6.17Z" transform="translate(-803.44 -981.69)"/></svg>